<svg width="24" height="24" viewBox="0 0 24 24" fill="none" xmlns="http://www.w3.org/2000/svg">
<path fill-rule="evenodd" clip-rule="evenodd" d="M5.05132 3.8163C3.82629 4.22465 3 5.37106 3 6.66235V12.0001C3 17.5021 8.56019 20.8418 10.9399 22.0192C11.6125 22.352 12.3875 22.352 13.0601 22.0192C15.4398 20.8418 21 17.5021 21 12.0001V6.66235C21 5.37106 20.1737 4.22465 18.9487 3.8163L12.9487 1.8163C12.3329 1.61104 11.6671 1.61104 11.0513 1.8163L5.05132 3.8163ZM15.7071 10.7072C16.0976 10.3166 16.0976 9.68348 15.7071 9.29295C15.3166 8.90243 14.6834 8.90243 14.2929 9.29295L11 12.5858L9.70711 11.293C9.31658 10.9024 8.68342 10.9024 8.29289 11.293C7.90237 11.6835 7.90237 12.3166 8.29289 12.7072L9.72721 14.1415C10.4302 14.8444 11.5698 14.8444 12.2728 14.1415L15.7071 10.7072Z" fill="#151515"/>
</svg>
