<svg width="24" height="27" viewBox="0 0 24 27" fill="none" xmlns="http://www.w3.org/2000/svg">
<path d="M17.3333 13.1667L16.6666 23.8333M17.3333 13.1667C17.3333 7.16666 15.3333 3.83332 11.9998 1.16666C8.66658 3.83332 6.66658 7.16666 6.66658 13.1667M17.3333 13.1667L20.6666 15.6667C21.9256 16.6109 22.6666 18.0929 22.6666 19.6667V24.9612C22.6666 25.6849 21.9217 26.1689 21.2604 25.875L16.6666 23.8333M6.66658 13.1667L7.33325 23.8333M6.66658 13.1667L3.33325 15.6667C2.07422 16.6109 1.33325 18.0929 1.33325 19.6667V24.9612C1.33325 25.6849 2.0781 26.1689 2.73939 25.875L7.33325 23.8333M7.33325 23.8333H16.6666M11.9999 10.5V13.1667" stroke="white" stroke-width="2" stroke-linecap="round" stroke-linejoin="round"/>
</svg>
